# xmcd
#
# Track frame offsets:
#	154
#	15275
#	35294
#	55684
#	75284
#	97244
#	111464
#	135221
#	149609
#	161159
#	175594
#	187989
#	201809
#	223074
#	236604
#	257084
#	270259
#	279704
#	296209
#	313657
#
# Disc length: 4440 seconds
#
# Revision: 1
# Processed by: cddbd v1.5PL3 Copyright (c) Steve Scherf et al.
# Submitted via: audiograbber 1.83.01
#
DISCID=1e115614
DTITLE=Various Artist - Sen o Láske 2
DYEAR=2002
DGENRE=Various Artist
TTITLE0=Miro Zbirka a Martha - Co boli, to preboli
TTITLE1=Vidiek a Viera Bila - O, mano
TTITLE2=Jana Kratochvilova - V stinu kapradiny
TTITLE3=Jana Bartosova a Michal David - To je nase vec
TTITLE4=Olympic - Okno me lasky
TTITLE5=Lenka Filipova - Castecne zatmeni srdce
TTITLE6=Tublatanka - Laska, drz ma nad hladinou
TTITLE7=Jiri Schelinger - Sipkova ruzenka
TTITLE8=Zuzana Norisova - SSS (Sugartown)
TTITLE9=Peter Nagy - Posledny krat
TTITLE10=Karel Cernoch - Ona se brani
TTITLE11=B-Side - Blaznova ukolebavka
TTITLE12=Richard Muller - Niet cim ta klamat
TTITLE13=Marie Rottrova - Lasko ...
TTITLE14=Vaclav Neckar - Dite snu
TTITLE15=Marika Gombitova - Laska
TTITLE16=Petr Novak - Povidej
TTITLE17=Marcel Polonder - Laska 91?
TTITLE18=Hana Hegerová a Petr Hapka - Levandulová
TTITLE19=Vaso Patejdl - Ak nie si moja
EXTD=
EXTT0=
EXTT1=
EXTT2=
EXTT3=
EXTT4=
EXTT5=
EXTT6=
EXTT7=
EXTT8=
EXTT9=
EXTT10=
EXTT11=
EXTT12=
EXTT13=
EXTT14=
EXTT15=
EXTT16=
EXTT17=
EXTT18=
EXTT19=
PLAYORDER=
